<svg t="1737710230759" class="icon" viewBox="0 0 1024 1024" version="1.1" xmlns="http://www.w3.org/2000/svg" p-id="4182" width="256" height="256"><path d="M897.6 704v9.536c0 68.288-24.576 123.776-73.6 166.464-12.8 10.624-26.688 20.224-41.6 28.8-32 19.2-65.088 32-99.2 38.4a328.256 328.256 0 0 1-48 9.6l-508.8 3.2v-48c38.464 0 64-3.2 76.8-9.6 14.912-6.4 25.6-16 32-28.8 4.224-8.512 6.4-26.624 6.4-54.4v-12.8-585.6c0-34.176-2.112-55.488-6.4-64-6.4-10.688-17.088-19.264-32-25.6-12.8-8.576-38.4-12.8-76.8-12.8V64h400c42.688 0 78.912 2.112 108.8 6.4h12.8a324.48 324.48 0 0 1 96 38.464l32 25.536c23.424 19.2 42.688 44.8 57.6 76.8 0 4.224 1.088 8.576 3.2 12.8 14.912 57.536 19.2 105.536 12.8 144a137.216 137.216 0 0 1-64 89.536c-14.912 8.576-33.088 16-54.464 22.464l-64 12.8h3.2c76.8 17.088 130.176 38.4 160 64 25.6 23.424 43.776 51.2 54.464 83.2 8.512 19.2 12.8 40.512 12.8 64z m-268.8-489.6c-12.8-23.488-33.024-41.6-60.8-54.4-23.488-10.688-56.576-16-99.2-16h-32v329.536h32c42.624-2.112 75.712-8.512 99.2-19.2 27.776-12.8 48-32 60.8-57.536 14.912-23.488 22.4-53.376 22.4-89.6v-6.4-9.6c-2.112-32-9.6-57.664-22.4-76.8z m-192 307.136v304c0 21.376 5.312 37.376 16 48 10.624 12.8 27.712 19.264 51.2 19.264 34.112 0 65.088-7.488 92.8-22.464 25.536-14.912 45.888-36.224 60.8-64a248.96 248.96 0 0 0 22.4-86.4v-9.6a187.2 187.2 0 0 0-28.8-102.4c-12.8-25.6-27.776-44.8-44.8-57.6l-22.4-9.536-3.2-3.264c-25.6-10.624-62.912-16-112-16h-32z" fill="#040000" p-id="4183"></path></svg>