<svg t="1737719033940" class="icon" viewBox="0 0 1024 1024" version="1.1" xmlns="http://www.w3.org/2000/svg" p-id="1462" width="256" height="256"><path d="M948.053333 738.56c-9.813333-50.346667-34.133333-124.16-94.72-190.293333-44.373333-48.213333-101.973333-86.186667-171.52-112.64-76.373333-29.013333-168.106667-44.8-273.066666-46.506667V191.573333c0-8.533333-5.546667-16.64-13.653334-19.626666-8.106667-2.986667-17.493333-0.853333-23.466666 5.546666L73.813333 501.333333c-7.253333 8.106667-7.253333 20.48 0 28.586667l297.813334 316.586667c5.973333 6.4 15.36 8.533333 23.466666 5.12 8.106667-2.986667 13.653333-11.093333 13.653334-19.626667v-194.986667c13.653333-0.853333 34.133333-1.706667 58.88-1.706666 132.693333 0 368.64 26.453333 456.96 203.946666 2.986667 6.4 10.24 9.813333 17.066666 8.533334 7.253333-1.28 12.373333-6.826667 13.226667-14.08 0.426667-1.706667 3.84-40.533333-6.826667-95.146667z m0 0" fill="" p-id="1463"></path></svg>