<svg t="1737718569398" class="icon" viewBox="0 0 1102 1024" version="1.1" xmlns="http://www.w3.org/2000/svg" p-id="10367" width="256" height="256"><path d="M352.055 65.105h646.09c35.74 0 64.632 29.522 64.632 65.813a65.184 65.184 0 0 1-64.554 65.814H351.976a65.184 65.184 0 0 1-64.554-65.814c0-36.291 28.892-65.813 64.554-65.813z m0 394.88h646.09c35.74 0 64.632 29.444 64.632 65.735a65.184 65.184 0 0 1-64.554 65.814H351.976a65.184 65.184 0 0 1-64.554-65.814c0-36.291 28.892-65.734 64.554-65.734z m0 394.803h646.09c35.74 0 64.632 29.443 64.632 65.813a65.184 65.184 0 0 1-64.554 65.735H351.976a65.184 65.184 0 0 1-64.554-65.735c0-36.37 28.892-65.813 64.554-65.813zM51.643 69.12V38.18c9.92 0.787 19.839 0.787 29.68 0a40.307 40.307 0 0 0 31.016-28.97 38.89 38.89 0 0 0 0-9.211h41.41v229.639h-48.495V69.04h-53.61z m0 509.975a130.682 130.682 0 0 1 45.188-49.36c14.17-9.683 27.553-20.468 40.15-32.277a48.494 48.494 0 0 0 14.17-33.536 37.315 37.315 0 0 0-7.794-24.405 28.183 28.183 0 0 0-23.224-9.84 27.632 27.632 0 0 0-31.017 15.115 78.252 78.252 0 0 0-5.196 28.34H41.96c-0.079-16.61 3.464-33.064 10.313-48.021a64.318 64.318 0 0 1 64.554-34.875c21.098-1.102 41.724 6.22 57.547 20.39 14.328 14.013 22.122 33.694 21.334 53.926a74.63 74.63 0 0 1-14.878 46.053c-9.447 11.494-20.547 21.413-32.907 29.6l-18.107 13.226-23.223 17.713A51.8 51.8 0 0 0 96.2 583.661h99.507v40.15H39.362c0.236-15.745 3.7-31.175 10.313-45.424l1.968 0.708zM83.92 948.233c-0.157 7.873 1.338 15.745 4.566 22.988 5.51 11.415 17.32 18.106 29.68 17.162a32.513 32.513 0 0 0 20.704-6.613 34.639 34.639 0 0 0 9.683-26.294 30.309 30.309 0 0 0-18.107-30.939 91.714 91.714 0 0 0-32.277-8.58V883.05c10.234 0.393 20.626-1.181 30.388-4.566a27.081 27.081 0 0 0 14.8-28.341 30.624 30.624 0 0 0-7.715-21.728 27.553 27.553 0 0 0-21.334-8.502 26.924 26.924 0 0 0-23.224 10.47 44.086 44.086 0 0 0-7.085 27.711H41.88c0.315-11.257 2.362-22.358 5.826-32.907a74.316 74.316 0 0 1 17.398-25.034 60.539 60.539 0 0 1 20.704-12.517 90.133 90.133 0 0 1 29.68-3.306 78.488 78.488 0 0 1 52.98 17.161c13.384 11.337 20.705 28.341 20.076 46.054a51.958 51.958 0 0 1-12.281 34.875 40.78 40.78 0 0 1-15.51 11.809c6.771 1.574 12.912 5.195 17.478 10.549 11.808 11.415 18.106 27.553 17.398 44.085a75.103 75.103 0 0 1-19.996 51.958c-15.745 15.824-37.394 24.011-59.437 22.437a71.954 71.954 0 0 1-64.633-32.277 97.46 97.46 0 0 1-11.021-44.716l43.298 1.968z" fill="#333333" p-id="10368"></path></svg>