<svg t="1737716519517" class="icon" viewBox="0 0 1024 1024" version="1.1" xmlns="http://www.w3.org/2000/svg" p-id="5146" width="256" height="256"><path d="M520.22272 112.753778a50.062222 50.062222 0 0 0-8.760889-45.852445 105.699556 105.699556 0 0 0-58.481778-21.048889c-10.695111-1.137778-19.000889-10.695111-19.569777-22.641777a40.96 40.96 0 0 1 0-9.784889V0c27.648 3.299556 54.954667 5.688889 81.806222 7.054222 26.851556 1.365333 51.768889 1.365333 74.865778 0h70.428444A420.977778 420.977778 0 0 0 739.017387 0c0.682667 7.736889 0.682667 15.473778 0 23.210667a22.072889 22.072889 0 0 1-4.551111 16.952889 17.294222 17.294222 0 0 1-14.791112 6.371555A123.448889 123.448889 0 0 0 656.756053 68.266667a77.368889 77.368889 0 0 0-23.324444 46.535111L503.83872 909.084444a46.648889 46.648889 0 0 0 9.443556 45.169778c19.114667 12.743111 40.732444 20.252444 62.919111 21.845334 10.581333 1.137778 18.659556 11.377778 18.204444 23.210666 0.682667 8.192 0.682667 16.497778 0 24.689778-27.648-3.299556-55.751111-5.688889-84.195555-7.054222H362.981831c-27.306667 0-53.248 2.275556-78.051555 7.054222a149.162667 149.162667 0 0 1 0-24.689778 21.390222 21.390222 0 0 1 4.096-14.791111 17.066667 17.066667 0 0 1 12.288-7.054222c22.186667-2.616889 43.576889-10.24 62.919111-22.528a72.135111 72.135111 0 0 0 25.144889-45.852445L520.22272 112.753778z" fill="#333333" p-id="5147"></path></svg>